<svg xmlns="http://www.w3.org/2000/svg" width="470.097" height="459.24" viewBox="0 0 470.097 459.24">
  <g id="Group_5" data-name="Group 5" transform="translate(-94.595 -260.08)">
    <g id="Group_4" data-name="Group 4" transform="translate(0 81.533)">
      <g id="undraw_city_life_gnpr" transform="translate(94.595 180.547)">
        <path id="Path_382" data-name="Path 382" d="M158.31,612.368a9.868,9.868,0,0,1,19.736,0" transform="translate(-139.748 -343.479)" fill="#1f1f2f"/>
        <path id="Path_383" data-name="Path 383" d="M175.278,615.425a.267.267,0,0,1-.267-.267v-5.2a.267.267,0,1,1,.533,0v5.2a.267.267,0,0,1-.267.267Z" transform="translate(-146.848 -346.536)" fill="#3f3d56"/>
        <path id="Path_384" data-name="Path 384" d="M172.911,614.131a.266.266,0,0,1-.174-.064l-3.2-2.747a.267.267,0,1,1,.347-.4l3.2,2.747a.267.267,0,0,1-.174.469Z" transform="translate(-144.481 -347.029)" fill="#3f3d56"/>
        <circle id="Ellipse_82" data-name="Ellipse 82" cx="18.971" cy="18.971" r="18.971" transform="translate(34.995 -2)" fill="#3f3d56"/>
        <path id="Path_385" data-name="Path 385" d="M168.32,303.5c4.523-14.124,15.568-25.078,28.666-31.593,15.541-7.73,33.4-8.605,50.273-5.6,18.216,3.248,35.24,10.734,51.72,18.9,16.164,8.014,32.067,16.476,48.877,23.1A316.4,316.4,0,0,0,453.028,330.1c32.441,1.082,67.127-2.472,94.9-20.706,25.451-16.707,41.647-44.269,50.082-73q1.62-5.517,2.88-11.129c.245-1.081-1.417-1.542-1.663-.458-6.8,30-21.313,59.654-46.1,78.778-26.813,20.684-62,25.466-94.934,24.919a314.872,314.872,0,0,1-106.544-20.56c-17.242-6.564-33.513-15.088-49.991-23.317-16.116-8.048-32.685-15.582-50.407-19.294-16.183-3.39-33.508-3.6-49.111,2.435-12.847,4.966-24.562,13.819-31.417,25.929a49.726,49.726,0,0,0-4.065,9.346C166.318,304.1,167.982,304.558,168.32,303.5Z" transform="translate(-143.277 -182.653)" fill="#1f1f2f"/>
        <path id="Path_386" data-name="Path 386" d="M563.026,588.469a.575.575,0,0,0,0-1.15h-5.461v-2.3h5.461a.575.575,0,0,0,0-1.15H516.461a.575.575,0,0,0,0,1.15h5.461v2.3h-5.461a.575.575,0,0,0,0,1.15h5.461v2.3h-5.461a.575.575,0,0,0,0,1.15h5.461v2.3h-4.887a1.15,1.15,0,0,0,0,2.3h4.652a.854.854,0,0,0-.053.287v8.048a.862.862,0,1,0,1.725,0V596.8a.859.859,0,0,0-.053-.287H556.18a.857.857,0,0,0-.053.287v8.048a.862.862,0,1,0,1.725,0V596.8a.859.859,0,0,0-.053-.287h4.652a1.15,1.15,0,1,0,0-2.3h-4.886v-2.3h5.461a.575.575,0,0,0,0-1.15h-5.461v-2.3Zm-39.954-3.449h33.343v2.3H523.072Zm33.343,9.2H523.072v-2.3h33.343Zm0-3.449H523.072v-2.3h33.343Z" transform="translate(-291.76 -335.559)" fill="#3f3d56"/>
        <path id="Path_387" data-name="Path 387" d="M265.69,524.574c0-10.153-8.236-34.246-18.4-34.246s-18.4,24.093-18.4,34.246a18.4,18.4,0,0,0,36.792,0Z" transform="translate(-169.756 -295.793)" fill="#2c2c3e"/>
        <path id="Path_388" data-name="Path 388" d="M257.69,524.574c0-10.153-8.236-34.246-18.4-34.246s-18.4,24.093-18.4,34.246a18.4,18.4,0,0,0,36.792,0Z" transform="translate(-166.355 -295.793)" fill="#1f1f2f"/>
        <path id="Path_389" data-name="Path 389" d="M253.473,582.7a.575.575,0,0,1-.575-.575V530.883a.575.575,0,1,1,1.15,0v51.245A.575.575,0,0,1,253.473,582.7Z" transform="translate(-179.959 -312.789)" fill="#3f3d56"/>
        <path id="Path_390" data-name="Path 390" d="M253.473,539.512a.575.575,0,0,1-.406-.981l7.518-7.518a.575.575,0,0,1,.813.813l-7.518,7.518A.573.573,0,0,1,253.473,539.512Z" transform="translate(-179.959 -313.017)" fill="#3f3d56"/>
        <path id="Path_392" data-name="Path 392" d="M701.69,524.574c0-10.153-8.236-34.246-18.4-34.246s-18.4,24.093-18.4,34.246a18.4,18.4,0,0,0,36.792,0Z" transform="translate(-355.108 -295.793)" fill="#2c2c3e"/>
        <path id="Path_393" data-name="Path 393" d="M693.69,524.574c0-10.153-8.236-34.246-18.4-34.246s-18.4,24.093-18.4,34.246a18.4,18.4,0,0,0,36.792,0Z" transform="translate(-351.707 -295.793)" fill="#1f1f2f"/>
        <path id="Path_394" data-name="Path 394" d="M689.472,582.7a.575.575,0,0,1-.575-.575V530.883a.575.575,0,0,1,1.15,0v51.245A.575.575,0,0,1,689.472,582.7Z" transform="translate(-365.311 -312.789)" fill="#3f3d56"/>
        <path id="Path_395" data-name="Path 395" d="M689.473,539.512a.575.575,0,0,1-.406-.981l7.518-7.518a.575.575,0,0,1,.813.813l-7.518,7.518a.572.572,0,0,1-.407.168Z" transform="translate(-365.311 -313.017)" fill="#3f3d56"/>
        <path id="Path_397" data-name="Path 397" d="M378.38,473.059H336.716a4.634,4.634,0,0,1-4.319-4.886V277.886A4.634,4.634,0,0,1,336.716,273H378.38a4.634,4.634,0,0,1,4.319,4.886V468.172A4.634,4.634,0,0,1,378.38,473.059Z" transform="translate(-213.756 -203.403)" fill="#2c2c3e"/>
        <path id="Path_398" data-name="Path 398" d="M335.424,473.059h-47.14a4.892,4.892,0,0,1-4.886-4.886V277.886A4.892,4.892,0,0,1,288.284,273h47.14a4.892,4.892,0,0,1,4.887,4.886V468.172A4.892,4.892,0,0,1,335.424,473.059Z" transform="translate(-192.925 -203.403)" fill="#1f1f2f"/>
        <path id="Path_400" data-name="Path 400" d="M314.758,333.546H303.835a1.439,1.439,0,0,1-1.437-1.437V315.437A1.439,1.439,0,0,1,303.835,314h10.923a1.439,1.439,0,0,1,1.437,1.437v16.672a1.439,1.439,0,0,1-1.437,1.437Z" transform="translate(-201.002 -220.833)" fill="#17181f"/>
        <path id="Path_401" data-name="Path 401" d="M351.758,333.546H340.835a1.439,1.439,0,0,1-1.437-1.437V315.437A1.439,1.439,0,0,1,340.835,314h10.923a1.439,1.439,0,0,1,1.437,1.437v16.672a1.439,1.439,0,0,1-1.437,1.437Z" transform="translate(-216.732 -220.833)" fill="#17181f"/>
        <path id="Path_402" data-name="Path 402" d="M314.758,386.546H303.835a1.439,1.439,0,0,1-1.437-1.437V368.437A1.439,1.439,0,0,1,303.835,367h10.923a1.439,1.439,0,0,1,1.437,1.437v16.672A1.439,1.439,0,0,1,314.758,386.546Z" transform="translate(-201.002 -243.364)" fill="#ffe200"/>
        <path id="Path_403" data-name="Path 403" d="M351.758,386.546H340.835a1.439,1.439,0,0,1-1.437-1.437V368.437A1.439,1.439,0,0,1,340.835,367h10.923a1.439,1.439,0,0,1,1.437,1.437v16.672A1.439,1.439,0,0,1,351.758,386.546Z" transform="translate(-216.732 -243.364)" fill="#17181f"/>
        <path id="Path_404" data-name="Path 404" d="M314.758,439.546H303.835a1.439,1.439,0,0,1-1.437-1.437V421.437A1.439,1.439,0,0,1,303.835,420h10.923a1.439,1.439,0,0,1,1.437,1.437v16.672A1.439,1.439,0,0,1,314.758,439.546Z" transform="translate(-201.002 -265.895)" fill="#17181f"/>
        <path id="Path_405" data-name="Path 405" d="M351.758,439.546H340.835a1.439,1.439,0,0,1-1.437-1.437V421.437A1.439,1.439,0,0,1,340.835,420h10.923a1.439,1.439,0,0,1,1.437,1.437v16.672A1.439,1.439,0,0,1,351.758,439.546Z" transform="translate(-216.732 -265.895)" fill="#ffe200"/>
        <path id="Path_406" data-name="Path 406" d="M314.758,492.546H303.835a1.439,1.439,0,0,1-1.437-1.437V474.437A1.439,1.439,0,0,1,303.835,473h10.923a1.439,1.439,0,0,1,1.437,1.437v16.672A1.439,1.439,0,0,1,314.758,492.546Z" transform="translate(-201.002 -288.426)" fill="#17181f"/>
        <path id="Path_407" data-name="Path 407" d="M351.758,492.546H340.835a1.439,1.439,0,0,1-1.437-1.437V474.437A1.439,1.439,0,0,1,340.835,473h10.923a1.439,1.439,0,0,1,1.437,1.437v16.672A1.439,1.439,0,0,1,351.758,492.546Z" transform="translate(-216.732 -288.426)" fill="#17181f"/>
        <path id="Path_409" data-name="Path 409" d="M372.357,555.839H343.23c-2.116,0-3.83-.983-3.833-2.194V528.194c0-1.211,1.717-2.193,3.833-2.194h29.127c2.116,0,3.83.983,3.832,2.194v25.451C376.187,554.856,374.473,555.838,372.357,555.839Z" transform="translate(-239.153 -299.505)" fill="#ffe200"/>
        <path id="Path_410" data-name="Path 410" d="M764.183,438.246h-9.2a2.59,2.59,0,0,1-2.587-2.587V423.587A2.59,2.59,0,0,1,754.985,421h9.2a2.59,2.59,0,0,1,2.587,2.587v12.073A2.59,2.59,0,0,1,764.183,438.246Z" transform="translate(-392.306 -266.32)" fill="#2c2c3e"/>
        <path id="Path_411" data-name="Path 411" d="M863.788,547.179H821.755a4.65,4.65,0,0,1-4.357-4.886V450.886A4.65,4.65,0,0,1,821.755,446h42.034a4.65,4.65,0,0,1,4.357,4.886v91.406A4.65,4.65,0,0,1,863.788,547.179Z" transform="translate(-419.938 -276.948)" fill="#2c2c3e"/>
        <path id="Path_412" data-name="Path 412" d="M794.917,547.179H713.284a4.892,4.892,0,0,1-4.887-4.886V450.886A4.892,4.892,0,0,1,713.284,446h81.633a4.892,4.892,0,0,1,4.887,4.886v91.406A4.892,4.892,0,0,1,794.917,547.179Z" transform="translate(-373.6 -276.948)" fill="#1f1f2f"/>
        <path id="Path_413" data-name="Path 413" d="M749.183,438.246h-9.2a2.59,2.59,0,0,1-2.587-2.587V423.587A2.59,2.59,0,0,1,739.985,421h9.2a2.59,2.59,0,0,1,2.587,2.587v12.073A2.59,2.59,0,0,1,749.183,438.246Z" transform="translate(-385.929 -266.32)" fill="#1f1f2f"/>
        <path id="Path_414" data-name="Path 414" d="M769.758,510.046H758.835a1.439,1.439,0,0,1-1.437-1.437V491.937a1.439,1.439,0,0,1,1.437-1.437h10.923a1.439,1.439,0,0,1,1.437,1.437v16.672a1.439,1.439,0,0,1-1.437,1.437Z" transform="translate(-393.587 -301.852)" fill="#17181f"/>
        <path id="Path_578" data-name="Path 578" d="M769.758,510.046H758.835a1.439,1.439,0,0,1-1.437-1.437V491.937a1.439,1.439,0,0,1,1.437-1.437h10.923a1.439,1.439,0,0,1,1.437,1.437v16.672a1.439,1.439,0,0,1-1.437,1.437Z" transform="translate(-413.654 -301.852)" fill="#17181f"/>
        <path id="Path_415" data-name="Path 415" d="M806.758,510.046H795.835a1.439,1.439,0,0,1-1.437-1.437V491.937a1.439,1.439,0,0,1,1.437-1.437h10.923a1.439,1.439,0,0,1,1.437,1.437v16.672a1.439,1.439,0,0,1-1.437,1.437Z" transform="translate(-410.161 -301.852)" fill="#17181f"/>
        <path id="Path_579" data-name="Path 579" d="M806.758,510.046H795.835a1.439,1.439,0,0,1-1.437-1.437V491.937a1.439,1.439,0,0,1,1.437-1.437h10.923a1.439,1.439,0,0,1,1.437,1.437v16.672a1.439,1.439,0,0,1-1.437,1.437Z" transform="translate(-388.89 -301.852)" fill="#ffe200"/>
        <path id="Path_416" data-name="Path 416" d="M788.555,574.731H761.021c-2,0-3.621-1.029-3.623-2.3V545.8c0-1.268,1.623-2.3,3.623-2.3h27.535c2,0,3.62,1.029,3.623,2.3v26.638C792.176,573.7,790.555,574.73,788.555,574.731Z" transform="translate(-415.415 -318.397)" fill="#ffe200"/>
        <path id="Path_417" data-name="Path 417" d="M826.282,574.732H798.105c-2.047,0-3.705-1.029-3.708-2.3V545.8c0-1.268,1.661-2.3,3.708-2.3h28.177c2.047,0,3.705,1.029,3.708,2.3v26.638c0,1.268-1.661,2.3-3.707,2.3Z" transform="translate(-410.161 -318.397)" fill="#17181f"/>
        <path id="Path_418" data-name="Path 418" d="M545.751,621.65H76.551a.593.593,0,0,1,0-1.15h469.2a.593.593,0,0,1,0,1.15Z" transform="translate(-76.102 -351.132)" fill="#1f1f2f"/>
        <path id="Path_422" data-name="Path 422" d="M464.69,524.574c0-10.153-8.236-34.246-18.4-34.246s-18.4,24.093-18.4,34.246a18.4,18.4,0,0,0,36.792,0Z" transform="translate(-254.355 -295.793)" fill="#2c2c3e"/>
        <path id="Path_423" data-name="Path 423" d="M456.69,524.574c0-10.153-8.236-34.246-18.4-34.246s-18.4,24.093-18.4,34.246a18.4,18.4,0,0,0,36.792,0Z" transform="translate(-250.954 -295.793)" fill="#1f1f2f"/>
        <path id="Path_424" data-name="Path 424" d="M452.472,582.7a.575.575,0,0,1-.575-.575V530.883a.575.575,0,1,1,1.15,0v51.245A.575.575,0,0,1,452.472,582.7Z" transform="translate(-264.558 -312.789)" fill="#3f3d56"/>
        <path id="Path_425" data-name="Path 425" d="M452.473,539.512a.575.575,0,0,1-.406-.981l7.518-7.518a.575.575,0,0,1,.813.813l-7.518,7.518a.573.573,0,0,1-.407.168Z" transform="translate(-264.558 -313.017)" fill="#3f3d56"/>
        <path id="Path_431" data-name="Path 431" d="M845.547,571.688a.977.977,0,0,1,.639,1.355l2.5,2.411-1.761.395-2.1-2.35a.982.982,0,0,1,.726-1.811Z" transform="translate(-431.379 -330.366)" fill="#ffb8b8"/>
        <path id="Path_432" data-name="Path 432" d="M850.2,577.651l-3.084-2.893a.437.437,0,0,1-.012-.626l.63-.638a.438.438,0,0,1,.577-.04l2.584,1.975,1.612-3.91a1.22,1.22,0,0,1,1.665-.631h0a1.213,1.213,0,0,1,.668,1.293c-.293,1.779-2.065,4.13-3.1,5.373a1.059,1.059,0,0,1-1.545.1Z" transform="translate(-432.512 -329.988)" fill="#5d5dff"/>
        <path id="Path_433" data-name="Path 433" d="M847.864,575.156l-2.27-3.293a.2.2,0,0,1,.05-.27l.091-.063a.194.194,0,0,1,.27.05l2.27,3.293a.194.194,0,0,1-.05.27l-.091.063a.2.2,0,0,1-.27-.05Z" transform="translate(-431.91 -330.299)" fill="#fff"/>
        <path id="Path_434" data-name="Path 434" d="M847,575.237l-1.884-2.733a.535.535,0,0,1,.137-.743l.192-.132,2.491,3.613-.192.132h0a.535.535,0,0,1-.743-.137Z" transform="translate(-431.682 -330.355)" fill="#3f3d56"/>
        <path id="Path_435" data-name="Path 435" d="M771.883,391.236,770.7,391.1l.157-4.608,1.553.179Z" transform="translate(-356.336 -122.767)" fill="#ffb8b8"/>
        <path id="Path_436" data-name="Path 436" d="M846.333,619.651l-3.816-.44.005-.048a1.5,1.5,0,0,1,1.657-1.314h0l2.331.269Z" transform="translate(-430.617 -350)" fill="#2f2e41"/>
        <path id="Path_437" data-name="Path 437" d="M794.452,389.975l-1.138.352-1.9-4.223,1.68-.519Z" transform="translate(-365.143 -122.381)" fill="#ffb8b8"/>
        <path id="Path_438" data-name="Path 438" d="M871.123,618.086l-3.67,1.134-.014-.046a1.5,1.5,0,0,1,.987-1.87h0l2.242-.692Z" transform="translate(-441.183 -349.478)" fill="#2f2e41"/>
        <path id="Path_439" data-name="Path 439" d="M846.309,604.495a.485.485,0,0,1-.324-.591l.713-8.212a2.48,2.48,0,0,1,.344-1.059l4.318-7.167,3.864.694.025.01c1.878,1.15,3.546,6.728,5.158,12.122.251.839.51,1.706.763,2.535a.488.488,0,0,1-.262.629l-1.17.493a.484.484,0,0,1-.615-.215l-6.015-11.013a.1.1,0,0,0-.075-.05.094.094,0,0,0-.083.032l-3.491,3.95-1.283,7.528-.005.016a.486.486,0,0,1-.575.277l-1.258.024h-.008Z" transform="translate(-432.084 -337.088)" fill="#2f2e41"/>
        <path id="Path_440" data-name="Path 440" d="M854.329,579.716l-.025-.008-.007-.025c-.018-.06-1.784-6.037-.193-9.848l0,0c.047-.091,1.157-2.224,2.447-2.438l.034-.006.419.784a6.913,6.913,0,0,1,1.371,6.54c.092.332,1.346,4.892.664,5.574a1.251,1.251,0,0,1-.851.213A17.17,17.17,0,0,1,854.329,579.716Z" transform="translate(-435.261 -328.553)" fill="#5d5dff"/>
        <circle id="Ellipse_84" data-name="Ellipse 84" cx="3.012" cy="3.012" r="3.012" transform="translate(418.014 232.07)" fill="#2f2e41"/>
        <circle id="Ellipse_85" data-name="Ellipse 85" cx="2.387" cy="2.387" r="2.387" transform="translate(417.443 233.307)" fill="#ffb8b8"/>
        <path id="Path_441" data-name="Path 441" d="M855.654,561.646c-.218.077-.485.145-.656-.015a.58.58,0,0,1-.038-.653,2.951,2.951,0,0,0,.3-.627.966.966,0,0,0-.354-.884,2.623,2.623,0,0,0-.865-.435l-1.671-.594a1.93,1.93,0,0,1-1.091-.707,1.308,1.308,0,0,1,.521-1.687,2.121,2.121,0,0,1,1.836-.036,9.467,9.467,0,0,0,.979.391c.669.177,1.43.018,2.018.4a1.863,1.863,0,0,1,.732,1.625,5.024,5.024,0,0,1-.491,1.8,3.345,3.345,0,0,1-.545.957,1.127,1.127,0,0,1-.954.411Z" transform="translate(-434.288 -323.634)" fill="#2f2e41"/>
        <circle id="Ellipse_86" data-name="Ellipse 86" cx="1.944" cy="1.944" r="1.944" transform="translate(421.61 231.681)" fill="#2f2e41"/>
        <path id="Path_442" data-name="Path 442" d="M857.21,563.083a.194.194,0,1,1,.267.18v.427a.073.073,0,1,1-.146,0v-.427a.194.194,0,0,1-.121-.18Z" transform="translate(-436.863 -326.639)" fill="#fff"/>
        <path id="Path_443" data-name="Path 443" d="M846.01,575.258a.977.977,0,0,1,1.071,1.048l3.183,1.388-1.513.984-2.791-1.469a.982.982,0,0,1,.049-1.951Z" transform="translate(-431.723 -331.896)" fill="#ffb8b8"/>
        <path id="Path_444" data-name="Path 444" d="M853.164,577.754l-3.9-1.637a.437.437,0,0,1-.229-.583l.368-.817a.438.438,0,0,1,.526-.239l3.11.95.148-4.227a1.22,1.22,0,0,1,1.341-1.171h0a1.213,1.213,0,0,1,1.077.979c.346,1.769-.5,4.59-1.029,6.115a1.059,1.059,0,0,1-1.414.629Z" transform="translate(-433.372 -329.674)" fill="#5d5dff"/>
        <path id="Path_509" data-name="Path 509" d="M652.105,581.455a1.071,1.071,0,0,1-.742-1.465l-3.948-8.921,2.259-.569,3.171,8.947a1.077,1.077,0,0,1-.739,2.007Z" transform="translate(-347.675 -329.876)" fill="#a0616a"/>
        <path id="Path_510" data-name="Path 510" d="M647.889,573.015a.48.48,0,0,1-.264-.3l-.69-2.309a1.334,1.334,0,0,1,2.413-1.138l1.335,2.016a.48.48,0,0,1-.2.7l-2.2,1.028A.48.48,0,0,1,647.889,573.015Z" transform="translate(-347.417 -329.026)" fill="#5d5dff"/>
        <path id="Path_511" data-name="Path 511" d="M660.184,573.786l-2.422,1.715a.182.182,0,0,1-.213,0l-.654-.491a.179.179,0,0,1-.012-.28l1.864-1.662a.184.184,0,0,1,.182-.035l1.213.434a.183.183,0,0,1,.043.32Z" transform="translate(-351.674 -330.947)" fill="#3f3d56"/>
        <path id="Path_512" data-name="Path 512" d="M660.186,573.715a.065.065,0,0,0-.038-.083l-1.092-.391a.065.065,0,0,0-.065.012l-1.681,1.5-.009.01a.063.063,0,0,0,.014.087l.589.442a.064.064,0,0,0,.076,0l2.183-1.545A.065.065,0,0,0,660.186,573.715Z" transform="translate(-351.873 -331.039)" fill="#fff"/>
        <path id="Path_513" data-name="Path 513" d="M571.214,391.142h1.222l.582-4.715h-1.8Z" transform="translate(-271.531 -122.739)" fill="#a0616a"/>
        <path id="Path_514" data-name="Path 514" d="M646.774,618.125h2.407a1.534,1.534,0,0,1,1.534,1.534v.05h-3.941Z" transform="translate(-347.403 -350.122)" fill="#2f2e41"/>
        <path id="Path_515" data-name="Path 515" d="M564.1,391.142h1.223l.581-4.715h-1.8Z" transform="translate(-268.508 -122.739)" fill="#a0616a"/>
        <path id="Path_516" data-name="Path 516" d="M639.663,618.125h2.407a1.534,1.534,0,0,1,1.534,1.534v.05h-3.941Z" transform="translate(-344.38 -350.122)" fill="#2f2e41"/>
        <path id="Path_517" data-name="Path 517" d="M639.613,600.5a.537.537,0,0,1-.133-.346c-.291-3,.5-18.756,2.333-20.1l.011-.011,5.362-.926h0l.1.1c.008.139.983,13.952-1.709,21a.449.449,0,0,1-.418.285h-1.07a.449.449,0,0,1-.447-.484l.867-13.2a.15.15,0,0,0-.3-.044l-2.441,13.4a.451.451,0,0,1-.405.352l-1.406.1h-.033a.449.449,0,0,1-.315-.129Z" transform="translate(-344.278 -333.538)" fill="#2f2e41"/>
        <circle id="Ellipse_90" data-name="Ellipse 90" cx="2.449" cy="2.449" r="2.449" transform="translate(299.942 232.6)" fill="#a0616a"/>
        <path id="Path_518" data-name="Path 518" d="M641.644,576.033a.58.58,0,0,1-.166-.394l1-4.682c-.8-3.39.264-4.025,1.463-4.668l-.008,0,.5-1.355a.423.423,0,0,1,.592-.274l2.552,1.356a.505.505,0,0,1,.237.3.633.633,0,0,1-.008.412l-.188.51c.487.651,1.241,3.226.443,4.223l.6,3.323a.524.524,0,0,1-.374.559l-6.289.807a.374.374,0,0,1-.074.007A.406.406,0,0,1,641.644,576.033Z" transform="translate(-345.152 -327.374)" fill="#5d5dff"/>
        <path id="Path_519" data-name="Path 519" d="M652.291,574.177a1.039,1.039,0,0,0-.111.122l-4.933-.341-.529-1.078-1.732.586.751,2a.8.8,0,0,0,.807.515l5.609-.425a1.047,1.047,0,1,0,.137-1.378Z" transform="translate(-346.643 -330.887)" fill="#a0616a"/>
        <path id="Path_520" data-name="Path 520" d="M646.241,572.2l-2.15.716a.449.449,0,0,1-.584-.348l-.392-2.225a1.246,1.246,0,1,1,2.367-.78l1.017,2.009a.449.449,0,0,1-.259.628Z" transform="translate(-345.821 -329.114)" fill="#5d5dff"/>
        <circle id="Ellipse_91" data-name="Ellipse 91" cx="1.994" cy="1.994" r="1.994" transform="translate(299.021 229.127)" fill="#2f2e41"/>
        <path id="Path_521" data-name="Path 521" d="M651.951,558.721a1.043,1.043,0,0,0,.577-.048.685.685,0,0,0,.343-.517c.372-2.469-1.728-2.265-1.976-2.372a2.725,2.725,0,0,1-.439-.32,2.053,2.053,0,0,0-1.147-.252,3.307,3.307,0,0,0-1.394.17,2.087,2.087,0,0,0-.926.854,4.312,4.312,0,0,0-.459,1.19,2.97,2.97,0,0,0-.078,1.458,1.8,1.8,0,0,0,1.637,1.312,1.349,1.349,0,0,1,.712-1.478,2.057,2.057,0,0,1,1.358-.162,5.982,5.982,0,0,0,.9.112C651.357,558.678,651.713,558.7,651.951,558.721Z" transform="translate(-347.242 -323.37)" fill="#2f2e41"/>
      </g>
      <g id="undraw_through_the_park_lxnl" transform="translate(109.902 237.744)">
        <path id="Path_378" data-name="Path 378" d="M0,123.67Z" transform="translate(299.651 -1.269)" fill="#6c63ff"/>
        <circle id="Ellipse_64" data-name="Ellipse 64" cx="13.723" cy="13.723" r="13.723" transform="translate(140.717 170.019)" fill="#6c63ff"/>
        <path id="Path_347" data-name="Path 347" d="M530.874,446.57a13.724,13.724,0,0,1-22.866,14.524,13.724,13.724,0,1,0,22.866-14.524Z" transform="translate(-366.326 -271.994)" opacity="0.2"/>
        <path id="Path_348" data-name="Path 348" d="M369.607,321.7h.037l.679,38.905h-1.432Z" transform="translate(-215.606 -137.962)" fill="#3f3d56"/>
        <rect id="Rectangle_53" data-name="Rectangle 53" width="0.679" height="2.564" transform="translate(156.03 204.334) rotate(62.234)" fill="#3f3d56"/>
        <circle id="Ellipse_65" data-name="Ellipse 65" cx="35.131" cy="35.131" r="35.131" transform="translate(225.675 104.383)" fill="#6c63ff"/>
        <path id="Path_349" data-name="Path 349" d="M726.933,358.887a35.134,35.134,0,0,1-58.539,37.182,35.134,35.134,0,1,0,58.539-37.182Z" transform="translate(-440.13 -242.838)" opacity="0.2"/>
        <path id="Path_350" data-name="Path 350" d="M559.109,255.443h.1l1.737,99.6h-3.668Z" transform="translate(-296.517 -115.929)" fill="#3f3d56"/>
        <rect id="Rectangle_54" data-name="Rectangle 54" width="1.737" height="6.563" transform="translate(267.665 192.23) rotate(62.234)" fill="#3f3d56"/>
        <path id="Path_352" data-name="Path 352" d="M403.931,697.82s.575-9.523,12.358-8.416" transform="translate(-318.65 -350.701)" fill="#3f3d56"/>
        <path id="Path_353" data-name="Path 353" d="M552.67,588.216s.361-7.57,7.768-6.691" transform="translate(-384.502 -316.844)" fill="#3f3d56"/>
        <circle id="Ellipse_68" data-name="Ellipse 68" cx="3.707" cy="3.707" r="3.707" transform="translate(163.235 256.754)" fill="#6c63ff"/>
        <rect id="Rectangle_57" data-name="Rectangle 57" width="1.046" height="7.325" transform="translate(166.269 266.703)" fill="#3f3d56"/>
        <path id="Path_354" data-name="Path 354" d="M769.779,552.689s.361-7.57,7.768-6.691" transform="translate(-536.598 -304.191)" fill="#3f3d56"/>
        <path id="Path_357" data-name="Path 357" d="M803.333,571.44s.361-7.57,7.768-6.69" transform="translate(-547.959 -300.835)" fill="#3f3d56"/>
        <circle id="Ellipse_72" data-name="Ellipse 72" cx="3.707" cy="3.707" r="3.707" transform="translate(250.458 255.987)" fill="#6c63ff"/>
        <rect id="Rectangle_61" data-name="Rectangle 61" width="1.046" height="7.325" transform="translate(253.823 265.936)" fill="#3f3d56"/>
        <path id="Path_358" data-name="Path 358" d="M483.59,596.111s.361-7.57,7.768-6.69" transform="translate(-354.818 -319.469)" fill="#3f3d56"/>
        <circle id="Ellipse_73" data-name="Ellipse 73" cx="3.707" cy="3.707" r="3.707" transform="translate(123.833 262.024)" fill="#6c63ff"/>
        <rect id="Rectangle_62" data-name="Rectangle 62" width="1.046" height="7.325" transform="translate(126.777 271.973)" fill="#3f3d56"/>
        <path id="Path_359" data-name="Path 359" d="M740.174,538.294s.278-5.817,5.969-5.141" transform="translate(-542.652 -304.414)" fill="#3f3d56"/>
        <ellipse id="Ellipse_74" data-name="Ellipse 74" cx="2.848" cy="2.848" rx="2.848" ry="2.848" transform="translate(193.741 222.647)" fill="#6c63ff"/>
        <rect id="Rectangle_63" data-name="Rectangle 63" width="0.804" height="5.628" transform="translate(196.262 230.292)" fill="#3f3d56"/>
        <path id="Path_360" data-name="Path 360" d="M268.731,733.355s.455-9.532,9.78-8.424" transform="translate(-261.429 -364.522)" fill="#3f3d56"/>
        <circle id="Ellipse_75" data-name="Ellipse 75" cx="4.667" cy="4.667" r="4.667" transform="translate(0 350.428)" fill="#6c63ff"/>
        <rect id="Rectangle_64" data-name="Rectangle 64" width="1.317" height="9.222" transform="translate(3.908 362.955)" fill="#3f3d56"/>
        <path id="Path_361" data-name="Path 361" d="M948.678,729.408s.455-9.532,9.78-8.424" transform="translate(-630.582 -370.398)" fill="#3f3d56"/>
        <circle id="Ellipse_76" data-name="Ellipse 76" cx="4.667" cy="4.667" r="4.667" transform="translate(310.794 340.605)" fill="#6c63ff"/>
        <rect id="Rectangle_65" data-name="Rectangle 65" width="1.317" height="9.222" transform="translate(314.702 353.132)" fill="#3f3d56"/>
        <path id="Path_362" data-name="Path 362" d="M891.44,695.855s.455-9.532,9.78-8.424" transform="translate(-611.55 -359.241)" fill="#3f3d56"/>
        <path id="Path_754" data-name="Path 754" d="M901.276,693.7s-.457-7.124-9.835-6.3" transform="translate(-621.275 -357.09)" fill="#3f3d56"/>
        <path id="Path_756" data-name="Path 756" d="M901.276,693.7s-.457-7.124-9.835-6.3" transform="translate(-816.275 -346.736)" fill="#3f3d56"/>
        <path id="Path_755" data-name="Path 755" d="M899.4,692.492s-.37-5.766-7.961-5.1" transform="translate(-665.22 -443.994)" fill="#3f3d56"/>
        <path id="Path_363" data-name="Path 363" d="M883.546,746.184s.455-9.531,9.78-8.424" transform="translate(-628.159 -374.077)" fill="#3f3d56"/>
        <circle id="Ellipse_78" data-name="Ellipse 78" cx="4.667" cy="4.667" r="4.667" transform="translate(248.085 353.702)" fill="#6c63ff"/>
        <rect id="Rectangle_67" data-name="Rectangle 67" width="1.317" height="9.222" transform="translate(251.992 366.229)" fill="#3f3d56"/>
        <path id="Path_364" data-name="Path 364" d="M312.893,675.358c23.351-31.811,139.31-54.674,137.671-110.665-3.005-15.48-23.768-19.432-23.768-19.432s-40.342-8.956-13.569-28.059,91.155-13.441,91.155-13.441-26.511.262-37.074,2.259c-24.9,4.706-46,14.662-22.368,20.267,21.4,6.173,63.522,24.018,68.96,61.01s-40.363,85.108-65.49,88.06c-24.164,2.04-48.367,4.907-48.367,4.907S289.541,707.169,312.893,675.358Z" transform="translate(-265.207 -290.848)" fill="#1f1f2f"/>
        <path id="Path_368" data-name="Path 368" d="M680.68,303.267l6.064-4.85c-4.711-.52-6.646,2.049-7.439,4.083-3.68-1.528-7.687.475-7.687.475l12.133,4.4a9.182,9.182,0,0,0-3.072-4.112Z" transform="translate(-347.618 -258.376)" fill="#3f3d56"/>
        <path id="Path_369" data-name="Path 369" d="M511.927,359.518l6.064-4.85c-4.711-.52-6.646,2.049-7.439,4.083-3.68-1.528-7.687.475-7.687.475L515,363.63A9.182,9.182,0,0,0,511.927,359.518Z" transform="translate(-299.375 -319.142)" fill="#3f3d56"/>
        <path id="Path_370" data-name="Path 370" d="M556.336,243.068l6.064-4.85c-4.711-.52-6.646,2.049-7.439,4.083-3.68-1.528-7.687.475-7.687.475l12.133,4.4A9.181,9.181,0,0,0,556.336,243.068Z" transform="translate(-291.696 -238.15)" fill="#3f3d56"/>
      </g>
      <g id="Group_3" data-name="Group 3" transform="translate(119.308 420.278)">
        <path id="Path_594" data-name="Path 594" d="M475.456,560.877a1.316,1.316,0,0,0-1.343-1.507l-8.431-8.524-1.666,2.328,8.811,7.647a1.324,1.324,0,0,0,2.628.056Z" transform="translate(-452.297 -537.649)" fill="#ffb8b8"/>
        <path id="Path_595" data-name="Path 595" d="M460.228,544.887l-1.519,1.517a.553.553,0,0,1-.776,0l-5.88-5.781a2.157,2.157,0,1,1,3.056-3.045l5.125,6.531a.553.553,0,0,1,0,.775Z" transform="translate(-441.695 -525.949)" fill="#6c63ff"/>
        <circle id="Ellipse_98" data-name="Ellipse 98" cx="3.01" cy="3.01" r="3.01" transform="translate(8.609 1.103)" fill="#ffb8b8"/>
        <path id="Path_596" data-name="Path 596" d="M181.031,573.9l.762,1.295,5.356-2.323-1.125-1.911Z" transform="translate(-179.582 -533.09)" fill="#ffb8b8"/>
        <path id="Path_597" data-name="Path 597" d="M391.6,721.765l1.5,2.55h0a1.885,1.885,0,0,1-.669,2.581l-.053.031-2.457-4.174Z" transform="translate(-389.92 -681.533)" fill="#2f2e41"/>
        <path id="Path_598" data-name="Path 598" d="M236.851,588.191h1.5l.715-5.795h-2.217Z" transform="translate(-226.572 -542.716)" fill="#ffb8b8"/>
        <path id="Path_599" data-name="Path 599" d="M452.482,751.81h2.959a1.885,1.885,0,0,1,1.885,1.885v.061h-4.844Z" transform="translate(-442.586 -706.826)" fill="#2f2e41"/>
        <path id="Path_600" data-name="Path 600" d="M406.076,639.513a.55.55,0,0,1-.444-.225l-1.449-1.968a.551.551,0,0,1,.138-.785l6.447-4.306L406.878,622l8.319.687.28,8.79a4.417,4.417,0,0,1-2.211,3.973l-6.914,3.989A.549.549,0,0,1,406.076,639.513Z" transform="translate(-401.836 -597.549)" fill="#2f2e41"/>
        <path id="Path_601" data-name="Path 601" d="M450.641,698.013a.551.551,0,0,1-.55-.532l-.3-8.563,3.775-.2-.3,8.625a.55.55,0,0,1-.515.531l-2.068.137Z" transform="translate(-440.317 -653.714)" fill="#2f2e41"/>
        <path id="Path_602" data-name="Path 602" d="M426.865,539.884c-.96,0-3.05-1.08-4.215-1.465a3.3,3.3,0,0,1-2.249.724,2.621,2.621,0,0,1-1.8-1.16c-1.121-1.521,1.14-7.145,2.5-12.349.572-2.189,1.877-4.429,4.09-3.949h0a4.236,4.236,0,0,1,3.2,3.11,7.975,7.975,0,0,1-.125,3.161,4.3,4.3,0,0,0-.115.916,106.554,106.554,0,0,1-1.03,10.947C427.083,539.864,427,539.884,426.865,539.884Z" transform="translate(-413.807 -513.046)" fill="#6c63ff"/>
        <path id="Path_603" data-name="Path 603" d="M444.158,562.668a1.316,1.316,0,0,0,.115-2.015l.059-11.989-2.824.47.829,11.637a1.324,1.324,0,0,0,1.82,1.9Z" transform="translate(-433.349 -535.812)" fill="#ffb8b8"/>
        <path id="Path_604" data-name="Path 604" d="M442.866,539.083h-3.042a.553.553,0,0,1-.551-.546l-.075-8.246a2.157,2.157,0,1,1,4.314.005l-.095,8.242A.553.553,0,0,1,442.866,539.083Z" transform="translate(-431.404 -518.533)" fill="#6c63ff"/>
        <path id="Path_605" data-name="Path 605" d="M442.771,474.527a3.054,3.054,0,0,1-2.917-2.444,3.513,3.513,0,0,1,.113-1.595,4.283,4.283,0,0,1,5.874-2.69,1.715,1.715,0,0,1,.9.774.8.8,0,0,1-.306,1.047c-.241.108-.544.055-.758.21-.308.223-.228.7-.091,1.052s.293.783.062,1.085a.894.894,0,0,1-.981.167,2.635,2.635,0,0,0-1.023-.247,1.2,1.2,0,0,0-.951,1.075,3.5,3.5,0,0,0,.251,1.514Z" transform="translate(-431.919 -467.418)" fill="#2f2e41"/>
        <path id="Path_606" data-name="Path 606" d="M528.871,611.457a3.552,3.552,0,0,1,4.239,3.14,1.99,1.99,0,0,1-.594,1.577,1.462,1.462,0,0,1-1.387.329c-.913-.3-.961-1.577-.472-2.256a3.261,3.261,0,0,1,3.018-.967,7.151,7.151,0,0,1,3.5,1.458,15.673,15.673,0,0,1,4.377,6.151,31.019,31.019,0,0,1,2.323,7.3q.089.475.162.952a.185.185,0,0,0,.228.125.189.189,0,0,0,.125-.228,31.426,31.426,0,0,0-2.357-7.973c-1.1-2.46-2.481-5.011-4.683-6.652a7.466,7.466,0,0,0-3.765-1.509,3.534,3.534,0,0,0-3.24,1.146,1.918,1.918,0,0,0,.368,2.66,1.673,1.673,0,0,0,1.594.032,2.042,2.042,0,0,0,1.077-1.335,3.391,3.391,0,0,0-.972-3.189,4.083,4.083,0,0,0-2.874-1.208,3.626,3.626,0,0,0-.773.092C528.537,611.156,528.64,611.509,528.871,611.457Z" transform="translate(-506.696 -588.299)" fill="#ccc"/>
        <path id="Path_607" data-name="Path 607" d="M583.25,740.862l-1.215-2.074,1.5-.877,1.215,2.074h0a.868.868,0,1,1-1.5.877Z" transform="translate(-551.647 -695.125)" fill="#6c63ff"/>
        <circle id="Ellipse_99" data-name="Ellipse 99" cx="1.068" cy="1.068" r="1.068" transform="translate(26.518 39.289)" fill="#6c63ff"/>
        <path id="Path_608" data-name="Path 608" d="M612.968,740.862l-1.215-2.074,1.5-.877,1.215,2.074a.868.868,0,0,1-1.5.877Z" transform="translate(-576.665 -695.125)" fill="#6c63ff"/>
        <path id="Path_609" data-name="Path 609" d="M565.6,724.083a2.273,2.273,0,0,1,2.27-2.27h7.187a.961.961,0,0,1,.96.96v.818a2.766,2.766,0,0,1-2.763,2.763h-5.383A2.273,2.273,0,0,1,565.6,724.083Z" transform="translate(-537.814 -681.574)" fill="#3f3d56"/>
        <path id="Path_610" data-name="Path 610" d="M576.081,745.469v-2.4h1.736v2.4a.868.868,0,0,1-1.736,0Z" transform="translate(-546.635 -699.464)" fill="#3f3d56"/>
        <path id="Path_611" data-name="Path 611" d="M607.931,745.469v-2.4h1.736v2.4a.868.868,0,0,1-1.736,0Z" transform="translate(-573.446 -699.464)" fill="#3f3d56"/>
        <path id="Path_612" data-name="Path 612" d="M643.241,696.009a1.068,1.068,0,1,1,1.666,1.338l-1.756,2.187-1.666-1.338Z" transform="translate(-601.693 -659.515)" fill="#6c63ff"/>
        <path id="Path_613" data-name="Path 613" d="M624.941,711.955l1.407-1.752a2.06,2.06,0,0,1,2.893-.316l.44.353a2.456,2.456,0,0,1,.377,3.449l-1.159,1.443a.771.771,0,0,1-1.083.118l-2.755-2.213A.771.771,0,0,1,624.941,711.955Z" transform="translate(-587.624 -671.153)" fill="#3f3d56"/>
        <path id="Path_614" data-name="Path 614" d="M643.45,695.027a.735.735,0,0,1,1.145.92l-1.965,2.447-1.145-.92Z" transform="translate(-601.693 -658.794)" fill="#3f3d56"/>
        <path id="Path_615" data-name="Path 615" d="M628.989,722.347l3.02,2.425a1.068,1.068,0,0,1-1.338,1.666l-3.02-2.425Z" transform="translate(-590.048 -682.023)" fill="#3f3d56"/>
        <ellipse id="Ellipse_100" data-name="Ellipse 100" cx="0.451" cy="0.25" rx="0.451" ry="0.25" transform="translate(41.582 44.368) rotate(-51.23)" fill="#6c63ff"/>
        <path id="Path_630" data-name="Path 630" d="M452.873,518.765h-1.74a.633.633,0,0,1,0-1.265h1.74a.633.633,0,0,1,0,1.265Z" transform="translate(-440.918 -509.578)" fill="#6c63ff"/>
      </g>
    </g>
    <g id="undraw_gone_shopping_vwmc" transform="translate(500 525.896)">
      <path id="Path_667" data-name="Path 667" d="M662.969,406.335l-1.973,4.6-12.1,16.045s-8.285,8.943-3.682,9.469,7.628-8.285,7.628-8.285l14.2-14.072,1.578-6.444Z" transform="translate(-938.044 -338.475)" fill="#9f616a"/>
      <path id="Path_668" data-name="Path 668" d="M708.354,340.168l-1.906.534s-8.56,22.74-7.771,25.5,4.34,6.181,5.918,5.918S708.354,340.168,708.354,340.168Z" transform="translate(-977.379 -290.982)" fill="#6c63ff"/>
      <path id="Path_669" data-name="Path 669" d="M827.133,748.092s-.837,4.2,1.679,2.516a12.174,12.174,0,0,0,3.828-4.926Z" transform="translate(-1069.521 -582.046)" fill="#2f2e41"/>
      <path id="Path_670" data-name="Path 670" d="M672.931,418.916s-26.7,94.163-17.228,96.925,23.409-.263,23.278-2.1-2.5-38.27-2.5-38.27,13.809,48.4,30.906,37.087,13.283-13.414,11.7-14.2-25.382-38.27-25.25-45.24-.263-28.8-3.156-32.089Z" transform="translate(-945.112 -347.505)" fill="#2f2e41"/>
      <path id="Path_672" data-name="Path 672" d="M775.8,281.359a5.523,5.523,0,0,1-.686-7.446c-.111.1-.22.213-.324.328a5.524,5.524,0,0,0,8.194,7.409c.1-.115.2-.234.294-.355A5.523,5.523,0,0,1,775.8,281.359Z" transform="translate(-1031.021 -243.427)" fill="#2f2e41"/>
      <circle id="Ellipse_115" data-name="Ellipse 115" cx="11.376" cy="11.376" r="11.376" transform="translate(-267.118 16.505)" fill="#2f2e41"/>
      <path id="Path_673" data-name="Path 673" d="M668.169,760.936s-3.025,3.025,0,3.025a12.174,12.174,0,0,0,5.918-1.973Z" transform="translate(-954.554 -592.995)" fill="#2f2e41"/>
      <path id="Path_674" data-name="Path 674" d="M744.162,283.624s1.973,8.154.526,9.732a14.611,14.611,0,0,1-4.6,2.762l.526,14.729s6.05-2.1,6.313-2.367,5.655-8.811,5.655-8.811l5.26-5s-8.022-3.814-5.655-10.39S744.162,283.624,744.162,283.624Z" transform="translate(-1007.137 -248.642)" fill="#9f616a"/>
      <circle id="Ellipse_116" data-name="Ellipse 116" cx="6.839" cy="6.839" r="6.839" transform="translate(-265.956 36.822) rotate(-80.783)" fill="#9f616a"/>
      <path id="Path_675" data-name="Path 675" d="M737.6,355.133s3.025-9.995,4.471-11.31,5-13.677,5-13.677-2.236-3.025-4.077-3.025-3.551.658-5.655,2.63a21.039,21.039,0,0,1-4.433,2.773,4.9,4.9,0,0,1-6.639-2.216,1.927,1.927,0,0,1-.106-1.872s-4.866,1.315-5.129,3.156,0,5.655-.395,6.444-1.578,1.973-1.052,6.97a49.9,49.9,0,0,1-.549,11.317C723.948,361.011,730.754,358.118,737.6,355.133Z" transform="translate(-992.028 -281.618)" fill="#6c63ff"/>
      <ellipse id="Ellipse_117" data-name="Ellipse 117" cx="5.787" cy="3.945" rx="5.787" ry="3.945" transform="translate(-263.962 21.107)" fill="#2f2e41"/>
      <circle id="Ellipse_118" data-name="Ellipse 118" cx="5.524" cy="5.524" r="5.524" transform="translate(-253.835 13.743)" fill="#2f2e41"/>
      <path id="Path_676" data-name="Path 676" d="M806.417,235.263a5.523,5.523,0,0,1-5.5-5.062c-.013.151-.021.3-.021.46a5.524,5.524,0,0,0,11.047,0v0c0-.155-.008-.308-.021-.46A5.523,5.523,0,0,1,806.417,235.263Z" transform="translate(-1050.784 -212.051)" fill="#2f2e41"/>
      <path id="Path_677" data-name="Path 677" d="M491.517,420.53H489.68l-3.672,32.028,12.111-.406Z" transform="translate(-748.839 -312.841)" fill="#6c63ff"/>
      <path id="Path_678" data-name="Path 678" d="M491.517,420.53H489.68l-3.672,32.028,12.111-.406Z" transform="translate(-748.839 -312.841)" opacity="0.2" style="isolation: isolate"/>
      <path id="Path_679" data-name="Path 679" d="M497.652,419.08l-2.244,32.234,27.487,2.041,2.244-31.419Z" transform="translate(-755.586 -311.8)" fill="#6c63ff"/>
      <circle id="Ellipse_119" data-name="Ellipse 119" cx="0.409" cy="0.409" r="0.409" transform="translate(-249.089 109.727)" opacity="0.2" style="isolation: isolate"/>
      <circle id="Ellipse_120" data-name="Ellipse 120" cx="0.409" cy="0.409" r="0.409" transform="translate(-240.52 110.746)" opacity="0.2" style="isolation: isolate"/>
      <path id="Path_680" data-name="Path 680" d="M813.152,534.972h-.2c0-.087.144-8.693-4.8-9.486a2.6,2.6,0,0,0-2.365.655c-2.041,2.024-1.2,7.739-1.188,7.8l-.2.031c-.037-.24-.866-5.876,1.248-7.97a2.786,2.786,0,0,1,2.54-.714C813.3,526.1,813.155,534.885,813.152,534.972Z" transform="translate(-1053.162 -423.814)" fill="#3f3d56"/>
      <path id="Path_681" data-name="Path 681" d="M804.715,402.142l-.658,7.365,1.315,22.094s3.025,11.179-1.578,10.916-2.893-11.7-2.893-11.7l-2.1-25.645Z" transform="translate(-1049.278 -335.465)" fill="#9f616a"/>
      <path id="Path_682" data-name="Path 682" d="M795.884,331.315l3.419,1.841s4.6,31.285,1.973,34.31-8.022,4.208-8.285,3.025-1.184-25.236-1.184-25.236Z" transform="translate(-1044.262 -284.628)" fill="#6c63ff"/>
    </g>
  </g>
</svg>
